<?xml version="1.0" encoding="utf-8"?>
<!DOCTYPE svg PUBLIC "-//W3C//DTD SVG 1.0//EN" "http://www.w3.org/TR/2001/REC-SVG-20010904/DTD/svg10.dtd">
<svg aria-labelledby="title desc" fill-rule="evenodd" height="1.829in" preserveAspectRatio="none" stroke-linecap="round" viewBox="0 0 1965 1829" width="1.965in" xmlns="http://www.w3.org/2000/svg" xmlns:xlink="http://www.w3.org/1999/xlink"><title>contacts,desk accessories,files,office supplies,offices,rotary files</title><desc>Original keywords: contacts,desk accessories,files,office supplies,offices,rotary files. This clipart was ripped from the Microsoft website, then uploaded to https://archive.org/details/MS_Clipart_Collection. (The original WMF file can be found within that item, under the folder MC900199865). From there, it was then converted by Trumad to svg using https://github.com/hidekatsu-izuno/wmf2svg in a bulk operation. All the converted files can be found at https://archive.org/details/MS_Clipart_Collection_SVG</desc>
<style type="text/css">
.brush0 { fill: rgb(255,255,255); }
.pen0 { stroke: rgb(0,0,0); stroke-width: 1; stroke-linejoin: round; }
.brush1 { fill: none; }
.pen1 { stroke: none; }
.brush2 { fill: rgb(0,0,0); }
</style>
<g>
<polygon class="pen1 brush2" points="776,739 661,587 453,576 472,600 491,625 511,650 531,676 551,701 570,726 589,750 607,773 623,795 638,815 652,833 663,849 673,862 680,872 684,878 685,881 680,892 676,900 672,904 669,907 668,908 154,1200 155,1195 157,1190 158,1186 159,1181 161,1175 165,1157 173,1130 183,1093 195,1050 209,1000 223,945 239,887 256,827 273,765 289,705 305,646 321,590 335,538 347,493 358,454 360,457 366,464 375,476 387,491 401,510 417,530 435,553 453,576 661,587 476,344 470,335 462,324 451,313 437,301 420,290 400,281 377,275 351,273 324,276 300,283 279,294 260,308 244,325 230,343 220,363 213,383 211,391 205,415 195,452 183,499 168,555 152,618 134,684 117,753 99,822 81,889 65,952 50,1008 38,1055 28,1091 22,1115 20,1123 15,1145 9,1179 6,1218 9,1259 16,1288 26,1312 37,1332 50,1348 63,1360 76,1370 89,1376 100,1381 122,1386 142,1387 162,1385 180,1380 196,1373 210,1366 222,1358 232,1351 718,1061 728,1056 740,1048 752,1038 765,1026 778,1010 791,992 803,970 814,944 823,911 827,880 825,850 819,822 810,796 799,773 788,754 776,739"/>
<polygon class="pen1 brush0" points="747,791 746,790 745,790 521,508 444,508 703,832 709,841 716,856 720,874 717,894 713,904 708,912 704,919 700,924 696,929 692,933 689,935 687,937 685,938 683,939 682,939 115,1262 116,1231 117,1217 120,1202 122,1187 126,1172 341,385 358,368 370,414 444,508 521,508 414,375 411,369 408,365 404,359 399,354 392,348 383,343 373,339 360,336 346,335 332,337 319,341 308,347 299,355 292,363 286,372 282,380 279,387 277,396 270,420 260,458 246,507 230,565 212,630 193,700 174,771 154,843 135,913 117,978 101,1036 87,1085 77,1123 70,1147 68,1156 63,1178 59,1205 56,1233 58,1259 61,1271 65,1282 69,1292 74,1300 79,1307 86,1313 92,1318 100,1321 110,1323 120,1323 130,1321 139,1318 147,1314 155,1310 161,1306 166,1302 169,1300 709,993 714,990 721,986 729,980 738,972 747,962 756,950 765,934 773,916 779,896 780,877 779,859 775,841 769,826 762,812 754,800 747,791"/>
<polygon class="pen1 brush2" points="1957,743 1756,683 1915,620 1765,576 1869,510 1745,473 1808,413 1698,381 1735,333 1633,303 1649,271 1532,237 1535,226 869,29 864,44 716,0 708,39 608,9 613,74 503,41 526,131 403,95 452,209 305,165 406,308 211,250 398,427 222,374 208,406 459,554 454,569 427,561 401,553 375,545 350,538 326,531 304,524 283,518 263,512 245,507 229,502 215,498 203,494 194,492 187,490 182,488 181,488 171,520 448,606 443,624 156,605 150,638 334,693 76,736 275,794 118,856 267,900 167,965 290,1002 228,1061 339,1094 302,1139 424,1175 397,1201 1109,1412 1111,1408 1306,1465 1311,1428 1411,1458 1410,1396 1516,1428 1500,1342 1618,1377 1573,1265 1715,1307 1624,1169 1808,1223 1641,1054 1804,1102 1818,1071 1645,958 1649,950 1652,941 1655,933 1657,924 1846,989 1857,957 1666,890 1667,881 1669,872 1670,863 1671,855 1873,872 1880,840 1690,784 1957,743"/>
<polygon class="pen1 brush0" points="1801,732 1664,753 1662,745 1659,738 1657,730 1654,723 1704,704 1801,732"/>
<polygon class="pen1 brush0" points="1381,1094 1367,1089 1354,1083 1341,1075 1330,1066 1318,1055 1308,1044 1299,1030 1290,1016 1280,994 1271,970 1266,945 1263,919 1262,892 1264,865 1268,837 1275,810 1284,783 1296,758 1309,734 1325,712 1341,692 1360,674 1380,658 1401,645 1416,638 1431,632 1445,628 1460,625 1475,624 1490,624 1505,626 1519,629 1533,634 1546,641 1559,649 1571,658 1582,668 1592,680 1602,693 1610,707 1620,730 1629,753 1634,778 1637,804 1638,831 1636,858 1632,886 1625,913 1617,936 1608,959 1597,980 1584,999 1571,1018 1557,1034 1541,1049 1525,1062 1508,1074 1491,1083 1473,1091 1455,1096 1436,1099 1418,1100 1399,1098 1381,1094"/>
<polygon class="pen1 brush0" points="1201,990 1191,967 1182,944 1177,919 1174,893 1173,866 1175,839 1179,811 1186,784 1195,757 1207,731 1220,707 1235,685 1252,665 1271,647 1290,632 1311,619 1325,612 1338,607 1352,602 1365,599 1379,598 1392,597 1405,598 1418,600 1404,606 1390,612 1376,620 1362,629 1349,638 1336,649 1324,661 1313,673 1301,686 1291,701 1281,716 1272,731 1263,748 1256,765 1249,783 1243,801 1235,832 1230,862 1228,893 1229,923 1233,952 1239,980 1248,1007 1260,1033 1265,1041 1270,1049 1275,1056 1280,1064 1268,1059 1257,1052 1246,1044 1236,1035 1226,1025 1217,1014 1209,1003 1201,990"/>
<polygon class="pen1 brush0" points="844,808 306,649 455,659 992,818 844,808"/>
<polygon class="pen1 brush0" points="480,517 477,525 345,447 896,610 1061,708 480,517"/>
<polygon class="pen1 brush0" points="1142,827 477,630 482,612 858,724 861,725 870,728 884,732 902,737 923,744 947,751 972,759 999,767 1025,776 1051,784 1075,791 1097,798 1116,804 1130,808 1140,812 1145,813 1144,816 1144,820 1143,823 1142,827"/>
<polygon class="pen1 brush0" points="1440,570 1438,570 1437,569 1435,569 1433,569 1522,269 1600,292 1452,574 1440,570"/>
<polygon class="pen1 brush0" points="1389,564 1431,231 1492,249 1399,564 1397,563 1394,563 1391,563 1389,564"/>
<polygon class="pen1 brush0" points="1238,1080 1091,1371 1025,1352 1229,1074 1231,1075 1234,1077 1236,1078 1238,1080"/>
<polygon class="pen1 brush0" points="1268,1095 1271,1096 1273,1097 1276,1098 1278,1099 1186,1394 1127,1377 1268,1095"/>
<polygon class="pen1 brush0" points="1311,1109 1322,1112 1278,1421 1219,1404 1311,1109"/>
<polygon class="pen1 brush0" points="1810,625 1641,692 1640,691 1640,691 1640,691 1640,691 1636,684 1632,678 1628,671 1624,665 1727,600 1810,625"/>
<polygon class="pen1 brush0" points="1787,522 1601,639 1597,635 1593,632 1589,629 1585,625 1716,501 1787,522"/>
<polygon class="pen1 brush0" points="1742,429 1554,607 1548,604 1542,601 1536,599 1529,597 1528,596 1675,409 1742,429"/>
<polygon class="pen1 brush0" points="1617,333 1677,351 1493,586 1486,584 1617,333"/>
<polygon class="pen1 brush0" points="742,44 1395,238 1354,567 1351,568 1349,568 1346,569 1343,570 1329,223 741,49 742,44"/>
<polygon class="pen1 brush0" points="646,56 1296,249 1310,582 1307,583 1305,584 1302,586 1299,587 1227,256 648,84 646,56"/>
<polygon class="pen1 brush0" points="551,91 1198,283 1269,606 1266,608 1264,609 1261,611 1259,613 1131,311 564,142 551,91"/>
<polygon class="pen1 brush0" points="463,148 1106,339 1232,638 1230,640 1228,642 1225,645 1223,647 1044,385 494,221 463,148"/>
<polygon class="pen1 brush0" points="390,226 1022,414 1201,675 1201,675 1199,678 1197,681 1195,684 1193,688 969,475 459,323 390,226"/>
<polygon class="pen1 brush0" points="338,324 951,505 1175,717 1178,713 1176,718 1174,723 1171,727 1169,732 910,578 471,448 338,324"/>
<polygon class="pen1 brush0" points="493,557 1154,774 1153,774 1153,774 1153,774 1153,774 1153,775 1153,777 1153,778 1152,779 868,691 866,690 859,688 849,685 834,681 816,676 796,669 772,662 746,655 718,646 688,637 656,628 624,618 590,608 556,598 521,588 487,578 493,557"/>
<polygon class="pen1 brush0" points="836,842 840,842 1139,861 1139,865 1139,868 1139,872 1139,876 840,925 229,745 406,716 406,714 836,842"/>
<polygon class="pen1 brush0" points="838,960 1142,911 1142,914 1143,918 1143,921 1143,925 856,1039 222,851 327,810 838,960"/>
<polygon class="pen1 brush0" points="857,1075 1151,959 1152,962 1154,965 1155,968 1156,971 891,1144 247,954 310,913 857,1075"/>
<polygon class="pen1 brush0" points="896,1181 1170,1003 1172,1006 1173,1008 1175,1011 1176,1014 943,1237 295,1045 328,1013 896,1181"/>
<polygon class="pen1 brush0" points="951,1275 1196,1042 1198,1044 1200,1046 1201,1049 1203,1051 1010,1314 361,1121 375,1104 951,1275"/>
<polygon class="pen1 brush0" points="1355,1122 1371,1127 1371,1127 1371,1127 1371,1127 1371,1127 1376,1412 1316,1394 1355,1122"/>
<polygon class="pen1 brush0" points="1406,1133 1411,1134 1417,1134 1422,1134 1427,1134 1472,1379 1409,1361 1406,1133"/>
<polygon class="pen1 brush0" points="1461,1130 1465,1129 1470,1127 1474,1126 1478,1125 1560,1324 1493,1304 1461,1130"/>
<polygon class="pen1 brush0" points="1510,1112 1517,1108 1523,1104 1529,1100 1536,1096 1635,1248 1556,1225 1510,1112"/>
<polygon class="pen1 brush0" points="1563,1076 1570,1070 1576,1063 1583,1056 1589,1049 1691,1153 1595,1125 1563,1076"/>
<polygon class="pen1 brush0" points="1701,1036 1618,1011 1621,1006 1624,1000 1627,995 1630,989 1701,1036"/>
<polygon class="pen1 brush0" points="1672,814 1708,825 1672,821 1672,819 1672,817 1672,816 1672,814"/>
<polygon class="pen1 brush2" points="1492,721 1471,718 1449,720 1429,728 1409,741 1390,758 1374,779 1360,805 1350,833 1343,866 1342,900 1347,931 1358,959 1363,967 1368,974 1374,981 1380,986 1386,992 1393,996 1400,999 1408,1002 1416,1004 1425,1005 1433,1006 1442,1005 1450,1004 1458,1001 1467,998 1475,994 1487,986 1499,976 1510,965 1521,953 1530,939 1538,924 1545,908 1551,891 1558,857 1559,824 1554,793 1543,765 1538,757 1533,750 1527,743 1521,737 1514,732 1507,728 1500,724 1492,721"/>
<polygon class="pen1 brush0" points="1418,969 1412,967 1407,965 1403,961 1399,958 1395,954 1393,950 1390,947 1388,943 1379,921 1375,896 1376,869 1382,842 1387,828 1393,816 1399,803 1407,792 1415,782 1423,774 1432,766 1442,760 1446,758 1450,756 1455,755 1460,753 1465,752 1471,752 1476,753 1482,754 1488,756 1493,759 1497,762 1501,766 1505,769 1508,773 1511,777 1513,781 1521,803 1525,827 1524,854 1518,881 1510,902 1500,921 1488,938 1475,951 1461,962 1447,968 1432,971 1418,969"/>
<polygon class="pen1 brush2" points="1893,1166 1777,1014 1570,1003 1589,1027 1608,1052 1628,1077 1647,1103 1667,1128 1687,1153 1705,1178 1723,1201 1740,1223 1755,1243 1769,1261 1780,1277 1790,1290 1797,1300 1801,1306 1802,1309 1797,1320 1793,1328 1789,1332 1786,1335 1785,1336 1271,1628 1272,1623 1273,1618 1274,1614 1275,1609 1277,1603 1282,1585 1289,1558 1299,1521 1311,1477 1325,1427 1340,1373 1356,1314 1372,1254 1389,1193 1406,1132 1422,1073 1437,1017 1451,965 1464,920 1474,881 1476,884 1482,891 1491,903 1504,918 1518,937 1534,957 1552,980 1570,1003 1777,1014 1592,772 1587,763 1579,752 1568,741 1554,729 1537,718 1517,709 1494,703 1467,701 1440,704 1416,711 1395,722 1376,736 1360,753 1347,771 1337,791 1330,811 1328,819 1322,843 1312,880 1300,927 1285,983 1269,1046 1251,1112 1233,1181 1215,1250 1197,1317 1181,1380 1166,1436 1154,1483 1144,1519 1138,1543 1136,1551 1131,1573 1126,1607 1123,1646 1126,1687 1133,1716 1143,1740 1154,1760 1167,1776 1180,1788 1193,1798 1205,1804 1216,1809 1238,1814 1259,1815 1279,1813 1297,1808 1313,1802 1327,1794 1339,1786 1348,1779 1834,1489 1844,1484 1856,1476 1868,1466 1881,1454 1895,1438 1908,1420 1920,1398 1931,1372 1940,1340 1944,1308 1942,1278 1936,1250 1927,1224 1916,1201 1905,1182 1893,1166"/>
<polygon class="pen1 brush0" points="1863,1218 1863,1218 1862,1217 1637,935 1561,935 1819,1259 1826,1268 1833,1283 1837,1302 1834,1322 1829,1332 1825,1340 1821,1347 1816,1352 1813,1357 1809,1361 1806,1363 1804,1365 1802,1366 1799,1367 1799,1367 1232,1690 1233,1659 1234,1645 1236,1630 1238,1615 1242,1600 1458,813 1474,796 1486,842 1561,935 1637,935 1531,803 1528,798 1525,793 1521,788 1515,782 1508,777 1500,772 1489,768 1477,765 1463,764 1448,765 1435,770 1424,776 1415,783 1408,791 1402,800 1398,808 1395,815 1393,824 1386,848 1376,886 1362,935 1346,993 1328,1058 1309,1128 1290,1199 1270,1271 1251,1341 1233,1406 1217,1464 1204,1513 1194,1551 1187,1575 1185,1584 1180,1606 1175,1633 1173,1661 1175,1687 1178,1699 1181,1710 1185,1720 1190,1728 1195,1735 1202,1741 1208,1746 1216,1749 1226,1751 1237,1751 1247,1749 1256,1746 1264,1742 1271,1738 1277,1734 1282,1730 1285,1728 1825,1421 1831,1418 1838,1414 1845,1408 1854,1400 1863,1390 1872,1378 1881,1362 1889,1344 1895,1325 1896,1305 1895,1287 1891,1269 1885,1253 1878,1239 1870,1227 1863,1218"/>
<polygon class="pen1 brush2" points="1519,752 1498,749 1477,751 1456,759 1436,771 1418,788 1401,810 1388,834 1377,862 1370,897 1369,930 1374,962 1385,990 1390,998 1395,1005 1401,1012 1407,1017 1414,1023 1421,1027 1428,1030 1436,1033 1444,1035 1452,1036 1460,1036 1469,1035 1477,1034 1485,1031 1494,1028 1502,1024 1514,1016 1526,1007 1537,996 1548,983 1557,970 1565,955 1572,939 1578,922 1585,888 1586,854 1581,823 1570,795 1565,787 1560,780 1554,773 1548,767 1542,762 1535,758 1527,755 1519,752"/>
<polygon class="pen1 brush0" points="1446,1000 1440,998 1435,995 1430,992 1426,989 1423,985 1420,981 1417,977 1415,973 1407,951 1403,927 1404,900 1410,872 1415,859 1420,846 1427,834 1434,823 1442,813 1450,804 1459,797 1469,791 1473,789 1477,787 1482,786 1487,784 1493,783 1498,783 1504,784 1510,785 1515,787 1520,789 1525,793 1529,796 1532,800 1535,804 1538,808 1540,812 1548,833 1552,858 1551,884 1545,912 1537,933 1527,952 1516,969 1503,982 1489,993 1474,999 1460,1002 1446,1000"/>
</g>
</svg>